<mxfile host="Electron" modified="2024-03-15T14:59:39.701Z" agent="Mozilla/5.0 (Windows NT 10.0; Win64; x64) AppleWebKit/537.36 (KHTML, like Gecko) draw.io/22.1.2 Chrome/114.0.5735.289 Electron/25.9.4 Safari/537.36" etag="SSh-XiCuXbjoYWWfw0Dr" version="22.1.2" type="device">
  <diagram name="Endpoint: Interface" id="H4zOSx-5xyuYORRZuIEA">
    <mxGraphModel dx="1098" dy="699" grid="1" gridSize="10" guides="1" tooltips="1" connect="1" arrows="1" fold="1" page="1" pageScale="1" pageWidth="1169" pageHeight="827" math="0" shadow="0">
      <root>
        <mxCell id="0" />
        <mxCell id="1" parent="0" />
        <UserObject label="&lt;font style=&quot;font-size: 11px;&quot;&gt;Availability zone&lt;/font&gt;" link="https://docs.aws.amazon.com/AWSEC2/latest/UserGuide/using-regions-availability-zones.html" linkTarget="_blank" tooltip="Availability Zone: A location within a region." id="ZpkPj5T2todnxI07iz1m-1">
          <mxCell style="sketch=1;outlineConnect=0;gradientColor=none;html=1;whiteSpace=wrap;fontSize=13;fontStyle=0;shape=mxgraph.aws4.group;grIcon=mxgraph.aws4.group_availability_zone;strokeColor=#545B64;fillColor=none;verticalAlign=top;align=left;spacingLeft=30;fontColor=#545B64;dashed=1;rotation=0;fontFamily=Roboto;fontSource=https%3A%2F%2Ffonts.googleapis.com%2Fcss%3Ffamily%3DRoboto;curveFitting=1;jiggle=2;" parent="1" vertex="1">
            <mxGeometry x="427.5" y="204" width="250" height="250" as="geometry" />
          </mxCell>
        </UserObject>
        <UserObject label="&lt;font color=&quot;#8c4fff&quot;&gt;VPC&lt;/font&gt;" link="https://docs.aws.amazon.com/vpc/latest/userguide/what-is-amazon-vpc.html" linkTarget="_blank" tooltip="VPC: Virtual Private Cloud" id="ZpkPj5T2todnxI07iz1m-2">
          <mxCell style="points=[[0,0],[0.25,0],[0.5,0],[0.75,0],[1,0],[1,0.25],[1,0.5],[1,0.75],[1,1],[0.75,1],[0.5,1],[0.25,1],[0,1],[0,0.75],[0,0.5],[0,0.25]];outlineConnect=0;gradientColor=none;html=1;whiteSpace=wrap;fontSize=12;fontStyle=0;container=1;pointerEvents=0;collapsible=0;recursiveResize=0;shape=mxgraph.aws4.group;grIcon=mxgraph.aws4.group_vpc2;strokeColor=#8C4FFF;fillColor=none;verticalAlign=top;align=left;spacingLeft=30;fontColor=#AAB7B8;dashed=0;rotation=0;sketch=1;curveFitting=1;jiggle=2;" parent="1" vertex="1">
            <mxGeometry x="457.5" y="234" width="190" height="190" as="geometry" />
          </mxCell>
        </UserObject>
        <mxCell id="ZpkPj5T2todnxI07iz1m-3" value="&lt;font color=&quot;#00a4a6&quot;&gt;Private subnet&lt;/font&gt;" style="points=[[0,0],[0.25,0],[0.5,0],[0.75,0],[1,0],[1,0.25],[1,0.5],[1,0.75],[1,1],[0.75,1],[0.5,1],[0.25,1],[0,1],[0,0.75],[0,0.5],[0,0.25]];outlineConnect=0;gradientColor=none;html=1;whiteSpace=wrap;fontSize=12;fontStyle=0;container=1;pointerEvents=0;collapsible=0;recursiveResize=0;shape=mxgraph.aws4.group;grIcon=mxgraph.aws4.group_security_group;grStroke=0;strokeColor=#00A4A6;fillColor=#E6F6F7;verticalAlign=top;align=left;spacingLeft=30;fontColor=#147EBA;dashed=0;shadow=1;rotation=0;" parent="ZpkPj5T2todnxI07iz1m-2" vertex="1">
          <mxGeometry x="35" y="35" width="120" height="120" as="geometry" />
        </mxCell>
        <UserObject label="Region" link="https://docs.aws.amazon.com/AWSEC2/latest/UserGuide/using-regions-availability-zones.html" linkTarget="_blank" tooltip="Region" id="ZpkPj5T2todnxI07iz1m-7">
          <mxCell style="html=1;verticalLabelPosition=middle;align=left;labelBackgroundColor=#ffffff;verticalAlign=middle;strokeWidth=2;strokeColor=#147EBA;shadow=0;dashed=0;shape=mxgraph.ios7.icons.flag;fontFamily=Roboto;fontSource=https%3A%2F%2Ffonts.googleapis.com%2Fcss%3Ffamily%3DRoboto;fontSize=13;labelPosition=right;spacingRight=0;spacingLeft=5;fontColor=#147EBA;" parent="1" vertex="1">
            <mxGeometry x="355" y="97" width="30" height="30" as="geometry" />
          </mxCell>
        </UserObject>
        <UserObject label="" tooltip="An Amazon S3 (Simple Storage Service) bucket." link="https://docs.aws.amazon.com/AmazonS3/latest/userguide/Welcome.html" linkTarget="_blank" id="ZpkPj5T2todnxI07iz1m-9">
          <mxCell style="sketch=0;points=[[0,0,0],[0.25,0,0],[0.5,0,0],[0.75,0,0],[1,0,0],[0,1,0],[0.25,1,0],[0.5,1,0],[0.75,1,0],[1,1,0],[0,0.25,0],[0,0.5,0],[0,0.75,0],[1,0.25,0],[1,0.5,0],[1,0.75,0]];outlineConnect=0;fontColor=#232F3E;fillColor=#000000;strokeColor=#ffffff;dashed=0;verticalLabelPosition=bottom;verticalAlign=top;align=center;html=1;fontSize=12;fontStyle=0;aspect=fixed;shape=mxgraph.aws4.resourceIcon;resIcon=mxgraph.aws4.s3;opacity=80;rotation=0;" parent="1" vertex="1">
            <mxGeometry x="362.005" y="322.5" width="39" height="39" as="geometry" />
          </mxCell>
        </UserObject>
        <mxCell id="ZpkPj5T2todnxI07iz1m-10" value="" style="endArrow=none;dashed=1;html=1;rounded=0;strokeColor=#147EBA;" parent="1" edge="1">
          <mxGeometry width="50" height="50" relative="1" as="geometry">
            <mxPoint x="706" y="94" as="sourcePoint" />
            <mxPoint x="707" y="539" as="targetPoint" />
          </mxGeometry>
        </mxCell>
        <UserObject label="" link="https://docs.aws.amazon.com/vpc/latest/privatelink/create-interface-endpoint.html" linkTarget="_blank" tooltip="Interface Endpoint" id="ZpkPj5T2todnxI07iz1m-13">
          <mxCell style="sketch=0;outlineConnect=0;fontColor=#232F3E;gradientColor=none;fillColor=#8C4FFF;strokeColor=none;dashed=0;verticalLabelPosition=bottom;verticalAlign=top;align=center;html=1;fontSize=12;fontStyle=0;aspect=fixed;pointerEvents=1;shape=mxgraph.aws4.endpoints;rotation=0;" parent="1" vertex="1">
            <mxGeometry x="532" y="321.5" width="41" height="41" as="geometry" />
          </mxCell>
        </UserObject>
        <mxCell id="ZpkPj5T2todnxI07iz1m-14" style="edgeStyle=orthogonalEdgeStyle;rounded=0;orthogonalLoop=1;jettySize=auto;html=1;endArrow=blockThin;endFill=1;" parent="1" source="ZpkPj5T2todnxI07iz1m-15" target="ZpkPj5T2todnxI07iz1m-17" edge="1">
          <mxGeometry relative="1" as="geometry" />
        </mxCell>
        <mxCell id="ZpkPj5T2todnxI07iz1m-15" value="" style="points=[[0.13,0.02,0],[0.5,0,0],[0.87,0.02,0],[0.885,0.4,0],[0.985,0.985,0],[0.5,1,0],[0.015,0.985,0],[0.115,0.4,0]];verticalLabelPosition=bottom;sketch=0;html=1;verticalAlign=top;aspect=fixed;align=center;pointerEvents=1;shape=mxgraph.cisco19.secure_endpoints;fillColor=#282828;strokeColor=none;" parent="1" vertex="1">
          <mxGeometry x="884" y="324.5" width="50" height="35" as="geometry" />
        </mxCell>
        <mxCell id="ZpkPj5T2todnxI07iz1m-21" style="edgeStyle=orthogonalEdgeStyle;rounded=0;orthogonalLoop=1;jettySize=auto;html=1;" parent="1" source="ZpkPj5T2todnxI07iz1m-17" target="ZpkPj5T2todnxI07iz1m-13" edge="1">
          <mxGeometry relative="1" as="geometry" />
        </mxCell>
        <UserObject label="" tooltip="A dedicated internet protocol via a virtual private network service." id="ZpkPj5T2todnxI07iz1m-17">
          <mxCell style="image;aspect=fixed;html=1;points=[];align=center;fontSize=12;image=img/lib/azure2/networking/Reserved_IP_Addresses_Classic.svg;rotation=0;" parent="1" vertex="1">
            <mxGeometry x="770" y="328.25" width="34" height="27.5" as="geometry" />
          </mxCell>
        </UserObject>
        <UserObject label="" tooltip="PEM (Privacy Enhanced Mail) Key" link="https://docs.aws.amazon.com/AWSEC2/latest/UserGuide/ec2-key-pairs.html" linkTarget="_blank" id="ZpkPj5T2todnxI07iz1m-18">
          <mxCell style="verticalLabelPosition=bottom;html=1;verticalAlign=top;align=center;strokeColor=none;fillColor=#282828;shape=mxgraph.azure.access_control;rotation=0;" parent="1" vertex="1">
            <mxGeometry x="797" y="347.25" width="35" height="35" as="geometry" />
          </mxCell>
        </UserObject>
        <mxCell id="ZpkPj5T2todnxI07iz1m-20" style="edgeStyle=orthogonalEdgeStyle;rounded=0;orthogonalLoop=1;jettySize=auto;html=1;entryX=1;entryY=0.5;entryDx=0;entryDy=0;entryPerimeter=0;endArrow=blockThin;endFill=1;" parent="1" source="ZpkPj5T2todnxI07iz1m-13" target="ZpkPj5T2todnxI07iz1m-9" edge="1">
          <mxGeometry relative="1" as="geometry" />
        </mxCell>
        <mxCell id="ZpkPj5T2todnxI07iz1m-22" value="" style="endArrow=none;dashed=1;html=1;rounded=0;strokeColor=#147EBA;" parent="1" edge="1">
          <mxGeometry width="50" height="50" relative="1" as="geometry">
            <mxPoint x="343" y="95" as="sourcePoint" />
            <mxPoint x="344" y="540" as="targetPoint" />
          </mxGeometry>
        </mxCell>
      </root>
    </mxGraphModel>
  </diagram>
</mxfile>
